P3
20 20
255
255 255 255 241 241 241 255 255 255 255 255 255 250 250 250 255 255 255 255 255 255 255 255 255 255 255 255 255 255 255 248 248 248 233 233 233 252 255 241 251 255 244 249 255 250 251 255 255 255 254 255 255 251 246 255 253 244 252 254 253 
237 237 237 4 4 4 0 0 0 0 0 0 0 0 0 12 12 12 0 0 0 0 0 0 0 0 0 0 0 0 4 4 4 20 20 20 236 236 236 244 255 248 249 253 252 251 252 255 249 252 255 245 255 255 245 255 255 252 255 255 
255 255 255 0 0 0 5 5 5 10 10 10 3 3 3 7 7 7 0 0 0 0 0 0 0 0 0 0 0 0 0 0 0 0 0 0 255 255 255 224 255 255 241 255 255 241 255 255 233 255 255 218 255 255 213 255 255 247 255 255 
255 255 255 8 8 8 0 0 0 0 0 0 0 0 0 0 0 0 17 17 17 5 5 5 0 0 0 15 15 15 4 4 4 2 2 2 255 255 255 198 255 255 217 255 255 211 255 255 200 255 255 189 255 255 197 255 255 238 255 255 
255 255 255 2 2 2 0 0 0 12 12 12 15 15 15 0 0 0 0 0 0 4 4 4 0 0 0 0 0 0 0 0 0 0 0 0 248 248 248 85 183 194 69 156 199 58 162 199 47 168 195 38 171 188 69 171 186 205 236 255 
255 255 255 4 4 4 0 0 0 0 0 0 0 0 0 0 0 0 3 3 3 0 0 0 3 3 3 0 0 0 6 6 6 9 9 9 252 252 252 218 255 255 15 175 207 19 180 226 11 185 219 14 184 207 58 183 203 227 255 255 
255 255 255 0 0 0 0 0 0 12 12 12 0 0 0 11 11 11 0 0 0 0 0 0 8 8 8 0 0 0 3 3 3 1 1 1 255 255 255 219 255 255 37 172 204 18 173 240 0 190 226 0 181 205 41 177 199 223 255 255 
255 255 255 0 0 0 4 4 4 2 2 2 0 0 0 0 0 0 0 0 0 0 0 0 2 2 2 0 0 0 9 9 9 0 0 0 255 255 255 219 255 255 37 172 204 16 194 232 0 190 226 0 181 205 41 177 199 223 255 255 
255 255 255 0 0 0 4 4 4 0 0 0 0 0 0 7 7 7 7 7 7 4 4 4 0 0 0 8 8 8 6 6 6 9 9 9 244 244 244 218 255 255 47 169 193 15 175 207 19 180 226 14 184 207 58 183 203 227 255 255 
255 255 255 0 0 0 0 0 0 0 0 0 0 0 0 0 0 0 0 0 0 0 0 0 0 0 0 2 2 2 0 0 0 1 1 1 250 250 250 213 249 255 85 183 194 42 169 184 58 162 199 47 168 195 69 171 186 205 236 255 
255 255 255 0 0 0 5 5 5 5 5 5 9 9 9 1 1 1 0 0 0 2 2 2 10 10 10 0 0 0 0 0 0 0 0 0 255 255 255 235 255 255 203 255 255 191 255 255 211 255 255 200 255 255 189 255 255 238 255 255 
236 236 236 11 11 11 0 0 0 0 0 0 0 0 0 2 2 2 14 14 14 0 0 0 0 0 0 0 0 0 0 0 0 15 15 15 240 240 240 253 254 255 231 255 255 224 255 255 226 255 255 233 255 255 218 255 255 213 255 255 
255 255 191 229 229 229 255 255 255 255 255 255 255 255 255 246 246 246 246 246 246 255 255 255 245 245 245 255 255 255 255 255 255 247 247 247 255 255 255 255 250 255 255 239 254 250 255 255 251 255 255 249 252 255 245 255 255 252 255 255 
255 255 209 234 240 54 243 231 71 253 239 0 255 255 204 255 255 248 252 255 255 252 252 255 255 249 255 255 248 255 255 249 253 255 252 241 255 255 241 247 255 255 255 235 253 255 244 255 255 251 250 255 255 241 255 251 246 255 251 248 
255 255 211 234 240 56 249 248 0 253 239 0 255 242 0 239 235 48 255 255 204 255 252 218 255 254 226 255 251 209 255 247 197 255 250 201 255 255 220 255 255 246 234 255 248 255 246 255 255 254 248 255 239 243 255 240 243 251 247 244 
255 255 202 237 239 50 249 249 0 253 239 0 255 242 0 251 240 0 253 242 4 239 239 67 245 240 76 250 237 71 247 232 81 253 239 117 255 253 174 255 255 232 250 255 254 255 251 243 255 230 236 255 222 232 255 223 230 255 228 230 
255 255 200 238 239 49 251 248 0 253 238 0 255 241 1 251 240 0 250 244 0 251 246 0 250 242 0 254 242 0 255 239 30 250 236 78 255 253 156 255 255 230 255 246 241 161 79 83 187 47 60 197 42 56 198 42 55 181 51 51 
255 255 205 241 237 54 252 246 4 254 236 2 255 240 6 251 240 2 250 244 0 250 247 0 250 242 0 254 241 2 255 237 37 244 224 93 255 255 184 255 255 241 255 233 234 178 65 71 200 46 58 225 30 47 232 27 42 164 78 79 
255 255 207 237 233 82 247 241 41 246 234 34 251 238 35 244 239 26 245 242 23 246 244 21 243 241 19 249 238 32 249 235 64 239 223 110 255 255 193 255 255 225 255 219 227 162 42 52 197 41 55 196 47 53 203 44 49 201 45 48 
251 251 197 240 242 145 233 235 110 232 233 95 235 235 85 234 236 73 232 235 66 232 235 66 230 235 73 233 233 87 234 234 112 240 238 153 248 246 189 255 255 220 255 227 228 180 91 95 255 244 231 255 255 255 255 241 227 255 242 227 
